<?xml version="1.0" standalone="no"?>
<!DOCTYPE svg PUBLIC "-//W3C//DTD SVG 20010904//EN"
 "http://www.w3.org/TR/2001/REC-SVG-20010904/DTD/svg10.dtd">
<svg version="1.0" xmlns="http://www.w3.org/2000/svg"
 width="1024.000000pt" height="1024.000000pt" viewBox="0 0 1024.000000 1024.000000"
 preserveAspectRatio="xMidYMid meet">

<g transform="translate(0.000000,1024.000000) scale(0.100000,-0.100000)"
fill="#ecebeb" stroke="none">
<path d="M3182 9041 c-115 -33 -207 -114 -271 -236 -68 -132 -62 175 -62
-3563 1 -2343 4 -3397 12 -3430 39 -176 209 -339 388 -372 34 -6 704 -10 1875
-10 1996 0 1892 -3 2017 60 75 38 172 133 211 206 62 116 58 -158 58 3559 0
3683 4 3439 -52 3554 -54 112 -193 218 -317 241 -35 6 -710 10 -1925 9 -1772
0 -1874 -1 -1934 -18z m288 -138 c-59 -10 -153 -47 -208 -82 -106 -69 -176
-207 -189 -374 -3 -42 -8 -75 -11 -73 -13 14 -21 188 -12 256 26 195 132 281
345 278 55 0 89 -3 75 -5z m92 -263 c117 -33 119 -202 3 -240 -66 -22 -144 27
-160 100 -10 47 26 114 73 134 45 18 39 18 84 6z m539 -28 c26 -23 33 -38 37
-80 4 -45 1 -56 -22 -87 -83 -108 -251 -22 -215 109 23 84 135 116 200 58z
m1685 -58 c45 -12 51 -82 8 -98 -8 -3 -312 -6 -674 -6 l-659 0 -15 22 c-21 30
-20 44 4 68 20 20 33 20 668 20 356 0 657 -3 668 -6z m1136 -576 c23 -13 51
-41 64 -65 l25 -41 0 -2604 c0 -1433 -3 -2613 -7 -2624 -15 -41 -49 -77 -88
-95 -39 -18 -105 -19 -1781 -19 -1672 0 -1742 1 -1781 19 -47 22 -80 59 -94
110 -8 25 -10 854 -8 2637 l3 2601 28 37 c53 69 -89 64 1846 65 l1753 1 40
-22z m-1722 -5858 c53 -27 83 -72 88 -135 8 -99 -47 -165 -143 -173 -152 -12
-236 152 -138 269 50 59 124 74 193 39z"/>
<path d="M4980 7173 c-717 -71 -1324 -550 -1544 -1215 -191 -582 -93 -1206
268 -1703 355 -489 947 -763 1551 -716 372 29 689 148 960 360 334 261 561
618 664 1038 45 186 54 278 48 495 -5 218 -25 337 -83 515 -197 599 -732 1076
-1344 1198 -148 29 -382 42 -520 28z m284 -108 c149 -26 256 -80 375 -190 34
-33 80 -85 102 -116 21 -32 49 -61 61 -65 37 -11 178 -102 248 -159 345 -280
546 -674 567 -1114 12 -248 -37 -480 -154 -731 -94 -202 -276 -422 -460 -557
-159 -117 -419 -229 -613 -264 -123 -23 -423 -17 -543 9 -298 66 -547 200
-753 406 -172 173 -272 338 -353 581 -73 222 -96 400 -80 620 15 209 61 371
155 556 134 263 394 527 635 644 39 20 63 40 82 70 107 169 298 287 509 314
97 13 128 12 222 -4z"/>
<path d="M5005 6954 c-102 -21 -219 -82 -291 -151 -148 -142 -214 -304 -214
-525 0 -85 -2 -92 -32 -135 -29 -40 -33 -53 -32 -107 0 -67 36 -214 62 -261
10 -16 32 -36 49 -44 23 -10 36 -26 49 -60 9 -25 36 -84 59 -131 52 -105 68
-170 67 -274 -1 -140 -42 -215 -145 -265 -34 -17 -102 -38 -152 -47 -151 -28
-244 -52 -298 -80 -117 -58 -186 -146 -173 -217 18 -96 243 -351 406 -458 220
-146 422 -217 684 -240 438 -38 907 178 1182 546 116 156 121 208 27 296 -85
80 -151 107 -350 143 -260 47 -341 115 -351 294 -6 113 10 187 72 322 29 63
58 127 64 143 7 15 19 27 30 27 42 0 67 49 107 203 28 111 25 154 -17 210 -22
28 -26 46 -31 152 -12 230 -60 348 -197 486 -65 65 -103 94 -160 122 -130 64
-269 81 -415 51z"/>
<path d="M2501 8190 c-74 -55 -168 -132 -211 -170 l-77 -70 -69 34 c-117 58
-175 71 -309 70 -104 0 -130 -4 -200 -28 -117 -40 -181 -80 -265 -165 -89 -90
-139 -178 -170 -301 -31 -120 -25 -299 14 -415 46 -137 164 -283 284 -352 26
-14 49 -28 51 -29 1 -2 -10 -31 -27 -66 -80 -170 -146 -353 -197 -552 l-33
-129 -69 -27 c-195 -75 -340 -240 -392 -447 -25 -98 -28 -263 -6 -367 41 -196
183 -367 365 -443 36 -14 69 -30 73 -34 5 -4 17 -53 27 -110 35 -199 104 -436
177 -608 24 -58 48 -109 52 -114 9 -9 110 34 111 48 0 6 -18 51 -39 100 -71
165 -153 451 -177 618 l-6 47 79 0 c245 0 477 149 584 376 92 194 87 412 -12
614 -34 69 -60 103 -133 176 -126 125 -241 178 -413 191 -46 3 -83 10 -83 15
0 5 16 64 36 131 43 146 94 284 159 430 l48 107 36 -7 c20 -5 86 -8 146 -8
189 1 327 57 456 186 63 62 85 93 122 170 25 52 51 119 58 149 17 73 17 229 0
310 -18 88 -90 234 -146 297 l-45 52 93 78 c51 43 132 108 180 146 l87 67 0
65 c0 46 -4 65 -13 65 -7 0 -73 -45 -146 -100z m-502 -390 c225 -87 339 -336
267 -582 -37 -123 -134 -221 -259 -260 -133 -42 -304 -27 -411 36 -151 89
-235 304 -191 488 33 137 98 230 202 289 74 42 132 57 231 58 69 1 95 -4 161
-29z m-370 -2020 c225 -87 339 -336 267 -582 -37 -123 -134 -221 -259 -260
-133 -42 -304 -27 -411 36 -151 89 -235 304 -191 488 33 137 98 230 202 289
74 42 132 57 231 58 69 1 95 -4 161 -29z"/>
<path d="M1764 7711 c-30 -18 -83 -81 -68 -81 3 0 1 -7 -6 -15 -7 -8 -9 -15
-4 -15 4 0 3 -5 -4 -12 -15 -15 -16 -70 -1 -85 6 -6 11 -18 13 -27 3 -24 57
-91 91 -115 42 -28 81 -26 128 6 32 23 92 103 92 125 0 3 3 10 8 14 11 11 8
89 -4 101 -6 6 -11 17 -13 24 -4 26 -39 70 -67 85 -40 20 -127 18 -165 -5z"/>
<path d="M1632 7373 c-52 -25 -99 -88 -113 -150 -21 -93 -40 -88 330 -91 270
-2 322 0 327 12 10 27 -16 130 -43 169 -29 42 -87 77 -128 77 -15 0 -47 -17
-75 -39 -28 -22 -59 -43 -70 -46 -23 -7 -72 19 -109 59 -29 30 -70 34 -119 9z"/>
<path d="M1394 5691 c-30 -18 -83 -81 -68 -81 3 0 1 -7 -6 -15 -7 -8 -9 -15
-4 -15 4 0 3 -5 -4 -12 -15 -15 -16 -70 -1 -85 6 -6 11 -18 13 -27 3 -24 57
-91 91 -115 42 -28 81 -26 128 6 32 23 92 103 92 125 0 3 3 10 8 14 11 11 8
89 -4 101 -6 6 -11 17 -13 24 -4 26 -39 70 -67 85 -40 20 -127 18 -165 -5z"/>
<path d="M1262 5353 c-52 -25 -99 -88 -113 -150 -21 -93 -40 -88 330 -91 270
-2 322 0 327 12 10 27 -16 130 -43 169 -29 42 -87 77 -128 77 -15 0 -47 -17
-75 -39 -28 -22 -59 -43 -70 -46 -23 -7 -72 19 -109 59 -29 30 -70 34 -119 9z"/>
<path d="M7600 8218 l1 -73 122 -97 c67 -54 139 -114 160 -133 l38 -36 -46
-52 c-103 -118 -156 -272 -156 -456 0 -136 20 -223 72 -320 101 -187 260 -302
473 -341 65 -12 215 -9 262 5 18 6 27 -5 67 -88 65 -132 207 -526 207 -574 0
-6 -39 -12 -93 -16 -175 -10 -315 -73 -437 -196 -89 -90 -141 -182 -171 -303
-30 -120 -24 -299 15 -413 88 -262 345 -445 622 -445 l83 0 -6 -37 c-23 -161
-96 -422 -166 -599 l-53 -131 58 -26 57 -25 45 107 c24 58 57 142 71 185 39
116 101 368 115 467 l13 86 64 28 c232 101 375 309 390 565 8 130 -14 236 -74
360 -39 80 -59 108 -137 185 -85 86 -133 118 -230 155 -18 7 -28 21 -36 52
-52 208 -145 475 -218 632 l-39 83 51 28 c83 46 207 177 250 265 102 208 96
440 -16 653 -48 90 -194 234 -278 274 -98 46 -165 64 -265 70 -110 6 -203 -12
-317 -61 l-80 -35 -97 87 c-84 75 -302 242 -316 242 -3 0 -5 -33 -5 -72z m939
-418 c225 -87 339 -336 267 -582 -37 -123 -134 -221 -259 -260 -133 -42 -304
-27 -411 36 -151 89 -235 304 -191 488 33 137 98 230 202 289 74 42 132 57
231 58 69 1 95 -4 161 -29z m360 -2020 c225 -87 339 -336 267 -582 -37 -123
-134 -221 -259 -260 -133 -42 -304 -27 -411 36 -151 89 -235 304 -191 488 33
137 98 230 202 289 74 42 132 57 231 58 69 1 95 -4 161 -29z"/>
<path d="M8304 7711 c-30 -18 -83 -81 -68 -81 3 0 1 -7 -6 -15 -7 -8 -9 -15
-4 -15 4 0 3 -5 -4 -12 -15 -15 -16 -70 -1 -85 6 -6 11 -18 13 -27 3 -24 57
-91 91 -115 42 -28 81 -26 128 6 32 23 92 103 92 125 0 3 3 10 8 14 11 11 8
89 -4 101 -6 6 -11 17 -13 24 -4 26 -39 70 -67 85 -40 20 -127 18 -165 -5z"/>
<path d="M8172 7373 c-52 -25 -99 -88 -113 -150 -21 -93 -40 -88 330 -91 270
-2 322 0 327 12 10 27 -16 130 -43 169 -29 42 -87 77 -128 77 -15 0 -47 -17
-75 -39 -28 -22 -59 -43 -70 -46 -23 -7 -72 19 -109 59 -29 30 -70 34 -119 9z"/>
<path d="M8664 5691 c-30 -18 -83 -81 -68 -81 3 0 1 -7 -6 -15 -7 -8 -9 -15
-4 -15 4 0 3 -5 -4 -12 -15 -15 -16 -70 -1 -85 6 -6 11 -18 13 -27 3 -24 57
-91 91 -115 42 -28 81 -26 128 6 32 23 92 103 92 125 0 3 3 10 8 14 11 11 8
89 -4 101 -6 6 -11 17 -13 24 -4 26 -39 70 -67 85 -40 20 -127 18 -165 -5z"/>
<path d="M8532 5353 c-52 -25 -99 -88 -113 -150 -21 -93 -40 -88 330 -91 270
-2 322 0 327 12 10 27 -16 130 -43 169 -29 42 -87 77 -128 77 -15 0 -47 -17
-75 -39 -28 -22 -59 -43 -70 -46 -23 -7 -72 19 -109 59 -29 30 -70 34 -119 9z"/>
<path d="M2456 6899 c-112 -98 -24 -271 121 -239 47 11 99 65 108 114 9 46
-26 121 -66 141 -15 8 -51 15 -78 15 -42 0 -56 -5 -85 -31z"/>
<path d="M7604 6911 c-71 -43 -80 -157 -19 -218 32 -32 49 -38 109 -34 96 5
156 113 112 200 -35 67 -135 93 -202 52z"/>
<path d="M2505 3963 c-40 -11 -74 -44 -91 -88 -22 -59 -8 -110 41 -154 86 -75
227 -11 229 103 0 49 -19 92 -55 118 -27 20 -89 31 -124 21z"/>
<path d="M7623 3956 c-67 -30 -97 -120 -64 -188 26 -55 65 -78 130 -78 42 0
56 5 86 31 49 44 63 95 41 154 -10 25 -31 54 -48 66 -38 27 -103 34 -145 15z"/>
<path d="M8245 3906 c-256 -59 -441 -237 -505 -486 -19 -72 -21 -105 -18 -210
7 -198 57 -317 190 -456 l59 -62 -78 -67 c-43 -37 -126 -104 -185 -148 l-108
-82 0 -73 c0 -57 3 -71 13 -65 121 76 304 220 412 323 l50 48 90 -31 c82 -28
101 -31 215 -31 111 0 134 3 205 28 118 41 180 80 271 170 131 131 190 279
188 476 -1 177 -64 335 -186 465 -88 94 -163 144 -269 179 -102 34 -250 44
-344 22z m294 -246 c225 -87 339 -336 267 -582 -37 -123 -134 -221 -259 -260
-133 -42 -304 -27 -411 36 -151 89 -235 304 -191 488 33 137 98 230 202 289
74 42 132 57 231 58 69 1 95 -4 161 -29z"/>
<path d="M8304 3571 c-30 -18 -83 -81 -68 -81 3 0 1 -7 -6 -15 -7 -8 -9 -15
-4 -15 4 0 3 -5 -4 -12 -15 -15 -16 -70 -1 -85 6 -6 11 -18 13 -27 3 -24 57
-91 91 -115 42 -28 81 -26 128 6 32 23 92 103 92 125 0 3 3 10 8 14 11 11 8
89 -4 101 -6 6 -11 17 -13 24 -4 26 -39 70 -67 85 -40 20 -127 18 -165 -5z"/>
<path d="M8172 3233 c-52 -25 -99 -88 -113 -150 -21 -93 -40 -88 330 -91 270
-2 322 0 327 12 10 27 -16 130 -43 169 -29 42 -87 77 -128 77 -15 0 -47 -17
-75 -39 -28 -22 -59 -43 -70 -46 -23 -7 -72 19 -109 59 -29 30 -70 34 -119 9z"/>
<path d="M1674 3876 c-110 -35 -172 -74 -259 -161 -92 -92 -142 -177 -176
-300 -18 -67 -21 -97 -17 -204 4 -110 9 -137 36 -209 74 -197 247 -356 442
-407 125 -33 309 -18 437 36 31 13 31 12 114 -65 98 -93 383 -316 403 -316 3
0 6 32 6 71 0 50 -4 75 -14 83 -8 6 -56 43 -108 83 -52 40 -133 107 -181 149
l-87 76 60 64 c41 45 73 93 104 157 56 117 70 178 70 297 0 119 -14 180 -71
300 -38 79 -59 107 -132 181 -71 70 -102 94 -171 127 -105 50 -163 62 -288 62
-73 -1 -115 -7 -168 -24z m356 -232 c201 -95 309 -320 255 -529 -59 -225 -272
-351 -516 -305 -178 33 -312 179 -342 371 -26 169 63 356 210 440 85 49 127
59 233 56 83 -2 103 -6 160 -33z"/>
<path d="M1779 3557 c-40 -26 -70 -82 -76 -141 -10 -90 84 -216 161 -216 75 0
166 114 166 207 0 57 -35 130 -74 154 -45 28 -133 26 -177 -4z"/>
<path d="M1662 3233 c-52 -25 -99 -88 -113 -149 -20 -88 -35 -84 323 -84 261
0 309 2 314 15 10 25 -16 118 -43 158 -28 40 -87 77 -123 77 -11 0 -43 -18
-70 -39 -28 -22 -59 -43 -70 -46 -23 -7 -72 19 -109 59 -28 30 -61 33 -109 9z"/>
</g>
</svg>
