<?xml version="1.0" standalone="no"?>
<!DOCTYPE svg PUBLIC "-//W3C//DTD SVG 20010904//EN"
 "http://www.w3.org/TR/2001/REC-SVG-20010904/DTD/svg10.dtd">
<svg version="1.0" xmlns="http://www.w3.org/2000/svg"
 width="1024.000000pt" height="1024.000000pt" viewBox="0 0 1024.000000 1024.000000"
 preserveAspectRatio="xMidYMid meet">

<g transform="translate(0.000000,1024.000000) scale(0.100000,-0.100000)"
fill="#000000" stroke="none">
<path d="M4365 10221 c-58 -7 -190 -68 -230 -106 -45 -43 -110 -155 -128 -220
-14 -52 -62 -212 -97 -320 -21 -66 -50 -165 -65 -220 -15 -55 -30 -107 -34
-115 -7 -13 -75 -16 -487 -21 -525 -6 -511 -4 -609 -70 -48 -32 -125 -113
-125 -131 0 -11 485 -13 2510 -13 1380 0 2510 1 2510 2 0 7 -41 53 -85 97 -27
27 -79 63 -115 80 l-65 31 -450 2 c-247 1 -457 2 -466 3 -17 0 -35 44 -79 190
-12 41 -44 140 -70 220 -26 80 -57 179 -70 220 -56 182 -123 270 -260 338
l-75 37 -730 1 c-401 1 -752 -1 -780 -5z m1295 -582 c44 -25 69 -69 104 -189
13 -47 34 -114 45 -150 15 -49 17 -66 8 -72 -18 -12 -1425 -10 -1432 2 -5 8
30 134 56 195 4 11 13 38 20 60 30 102 67 157 114 168 11 3 251 5 534 6 505 1
514 1 551 -20z"/>
<path d="M1655 8744 c-117 -60 -145 -119 -145 -308 0 -190 30 -266 129 -324
l46 -27 3415 0 c3214 0 3417 1 3451 17 48 23 113 95 130 144 10 28 14 84 12
195 -1 139 -3 159 -23 195 -32 57 -58 81 -116 109 l-53 25 -3398 0 -3398 -1
-50 -25z"/>
<path d="M1953 7723 c-12 -2 -23 -10 -25 -16 -1 -7 -2 -132 0 -279 l3 -267 29
-29 c27 -27 36 -30 115 -34 56 -3 91 -9 100 -19 11 -11 17 -138 31 -694 17
-702 24 -973 43 -1590 13 -429 19 -632 32 -1190 5 -231 14 -557 19 -725 31
-1053 39 -1352 46 -1795 4 -214 9 -277 26 -354 44 -203 127 -346 290 -499 119
-112 283 -187 472 -217 60 -10 3863 -6 3931 4 33 5 80 14 105 21 67 18 204 72
208 82 2 4 8 8 14 8 14 0 137 89 178 130 106 106 199 254 235 379 10 31 21 67
26 81 14 37 29 337 29 568 0 112 5 335 10 495 6 161 15 486 21 722 10 425 19
787 39 1515 5 206 14 542 19 745 11 417 27 927 41 1335 6 151 10 347 10 435 0
249 18 547 32 557 7 4 51 8 99 8 83 0 86 1 117 33 l32 33 0 268 c0 244 -2 270
-17 282 -15 11 -561 13 -3153 12 -1724 0 -3145 -3 -3157 -5z m1679 -1167 c61
-19 80 -30 122 -69 68 -64 69 -72 77 -387 9 -344 8 -4346 -1 -4580 -7 -207
-24 -246 -128 -304 -48 -26 -184 -27 -232 -2 -50 27 -87 64 -113 116 l-22 45
0 2505 0 2505 25 49 c30 59 80 102 140 120 59 18 76 18 132 2z m1532 -1 c73
-22 123 -63 166 -135 13 -22 15 -324 18 -2524 1 -1653 -1 -2511 -8 -2536 -15
-54 -64 -116 -112 -142 -61 -32 -185 -32 -246 0 -46 25 -99 90 -120 150 -17
50 -16 4958 2 5024 15 57 93 142 149 161 56 19 92 20 151 2z m1581 -21 c50
-28 90 -72 114 -124 14 -32 16 -268 19 -2510 2 -1929 0 -2487 -9 -2528 -15
-62 -69 -130 -126 -157 -41 -20 -177 -26 -203 -9 -8 5 -17 9 -20 9 -34 3 -122
107 -135 160 -9 35 -8 4968 1 4999 23 84 78 144 156 175 66 26 138 21 203 -15z"/>
</g>
</svg>
